PathFileType	4	(x/y/z)	S04_P20_T18.trc
DataRate	CameraRate	NumFrames	NumMarkers	Units	OrigDataRate	OrigDataStartFrame	OrigNumFrames
240	240	7	51	mm	240	227	363
Frame#	Time	Sternum			R.Acromium			L.Acromium			Top.Head			R.ASIS			L.ASIS			R.PSIS			L.PSIS			R.Great.Tro			L.Great.Tro			R.Iliac.Crest			L.Iliac.Crest			V.Sacral			R.Thigh.Upper.Post			R.Thigh.Lower.Ant			R.Thigh.Lower.Post			R.Thigh.Upper.Ant			R.Knee.Lat			R.Knee.Med			R.Shank.Upper.Post			R.Shank.Lower.Ant			R.Shank.Lower.Post			R.Shank.Upper.Ant			R.Ankle.Lat			R.Ankle.Med			R.Heel.Upper			R.Heel.Med			R.Heel.Lat			R.Toe.Lat			R.Toe.Med			R.Toe.Tip			L.Thigh.Upper.Post			L.Thigh.Lower.Ant			L.Thigh.Lower.Post			L.Thigh.Upper.Ant			L.Knee.Lat			L.Knee.Med			L.Shank.Upper.Post			L.Shank.Lower.Ant			L.Shank.Lower.Post			L.Shank.Upper.Ant			L.Ankle.Lat			L.Ankle.Med			L.Heel.Upper			L.Heel.Med			L.Heel.Lat			L.Toe.Lat			L.Toe.Med			L.Toe.Tip			Cervical.Spine			Back			
		X1	Y1	Z1	X2	Y2	Z2	X3	Y3	Z3	X4	Y4	Z4	X5	Y5	Z5	X6	Y6	Z6	X7	Y7	Z7	X8	Y8	Z8	X9	Y9	Z9	X10	Y10	Z10	X11	Y11	Z11	X12	Y12	Z12	X13	Y13	Z13	X14	Y14	Z14	X15	Y15	Z15	X16	Y16	Z16	X17	Y17	Z17	X18	Y18	Z18	X19	Y19	Z19	X20	Y20	Z20	X21	Y21	Z21	X22	Y22	Z22	X23	Y23	Z23	X24	Y24	Z24	X25	Y25	Z25	X26	Y26	Z26	X27	Y27	Z27	X28	Y28	Z28	X29	Y29	Z29	X30	Y30	Z30	X31	Y31	Z31	X32	Y32	Z32	X33	Y33	Z33	X34	Y34	Z34	X35	Y35	Z35	X36	Y36	Z36	X37	Y37	Z37	X38	Y38	Z38	X39	Y39	Z39	X40	Y40	Z40	X41	Y41	Z41	X42	Y42	Z42	X43	Y43	Z43	X44	Y44	Z44	X45	Y45	Z45	X46	Y46	Z46	X47	Y47	Z47	X48	Y48	Z48	X49	Y49	Z49	X50	Y50	Z50	X51	Y51	Z51	

227	0.94167	-108.24	1266.9	262.7	-202.71	1495.4	455.58	-260.55	1482	109.25	-207.29	1821.4	262.05	-145.4	982.82	413.14	-148.29	1008.6	165	-358.21	1018.2	309.76	-351.19	1021.8	228.97	-241.67	905.4	469.85	-250.72	917.87	90.127	-226.37	1074.9	452.39	-253.43	1084.7	117.21	-372.76	977.01	269.55	-302.94	660.27	454.5	-246.93	564.7	417.25	-321.5	572.02	440.54	-215.21	669.66	438.31	-321.49	498.84	430.69	-345.5	502.99	296.43	-456.13	300.27	421.4	-410.6	207.95	379.62	-474.36	233.09	402.1	-395.19	275.27	405.53	-491.99	119.46	380.72	-475.11	130.05	293.53	-563.81	94.931	325.68	-557.38	62.791	296.77	-563.57	63.994	360.96	-397.77	39.582	416.25	-356.67	35.918	297.49	-294.08	45.279	348.12	-192.03	679.06	102.13	-82.52	616.1	99.591	-152.27	599.31	114.04	-127.17	693.63	84.273	-81.307	527.19	114.69	-65.815	516.83	242.92	-99.839	329.64	120.74	-3.9814	274.11	110.68	-65.775	259.5	124.88	-37.758	343.09	105.64	42.148	120.66	125.73	49.872	135.55	217.99	-16.193	63.188	177.4	3.2332	44.862	212.33	-1.626	37.808	151.23	168.73	96.746	99.486	201.33	123.14	210.93	245.82	152.76	158.57	-280.2	1543.4	294.38	-365.89	1286.3	285.21
228	0.94583	-102.72	1266.3	262.05	-197.15	1494.8	455.01	-255.25	1481.3	108.68	-201.72	1820.8	261.48	-139.63	982.28	412.68	-142.53	1008	164.51	-352.47	1017.5	309.21	-345.53	1021.2	228.41	-236	904.88	469.43	-244.92	917.15	89.71	-220.69	1074.3	451.93	-247.81	1084	116.72	-367.03	976.31	269	-297.68	659.93	454.18	-241.79	564.25	417.06	-316.38	571.7	440.24	-209.91	669.18	438.06	-316.66	498.43	430.49	-340.46	502.68	296.25	-453.24	301.1	421.41	-408.67	208.28	379.63	-472.18	234.1	402.13	-392.54	275.44	405.54	-491.04	120.61	380.84	-474.06	131.03	293.63	-563.1	96.666	325.88	-556.94	64.547	296.9	-563.1	65.658	361.08	-397.54	39.65	416.31	-356.52	35.934	297.56	-293.83	44.94	348.14	-186.66	678.4	101.91	-77.249	615.27	99.588	-147.05	598.62	113.98	-121.74	692.85	84.077	-76.094	526.4	114.7	-60.98	516.08	242.97	-94.201	328.75	120.67	1.8111	273.42	110.9	-60.011	258.69	124.89	-32.105	342.32	105.78	48.277	120.2	126.03	55.733	135.06	218.34	-9.9798	62.633	177.54	9.4398	44.312	212.47	4.7227	37.31	151.35	174.98	96.852	100.09	207.23	123.25	211.61	251.72	153.12	159.39	-274.81	1542.7	293.86	-360.4	1285.7	284.8
229	0.95	-97.183	1265.8	261.39	-191.6	1494.2	454.42	-249.96	1480.7	108.1	-196.15	1820.3	260.9	-133.84	981.76	412.2	-136.74	1007.5	164	-346.7	1016.8	308.64	-339.84	1020.5	227.83	-230.29	904.38	469	-239.11	916.46	89.289	-215	1073.6	451.45	-242.16	1083.3	116.2	-361.28	975.64	268.43	-292.29	659.57	453.86	-236.47	563.79	416.9	-311.1	571.36	439.94	-204.48	668.72	437.82	-311.64	498.01	430.3	-335.22	502.32	296.08	-450.22	301.97	421.45	-406.64	208.64	379.66	-469.88	235.16	402.18	-389.77	275.63	405.55	-490.02	121.83	380.99	-472.87	132.07	293.77	-562.31	98.524	326.09	-556.45	66.434	297.05	-562.58	67.44	361.23	-397.3	39.724	416.37	-356.37	35.959	297.62	-293.58	44.612	348.15	-181.19	677.78	101.67	-71.855	614.51	99.612	-141.72	597.99	113.9	-116.21	692.14	83.907	-70.765	525.65	114.72	-56.034	515.39	242.99	-88.74	327.94	120.6	7.3292	272.67	111.16	-54.543	257.92	124.91	-26.606	341.54	105.95	53.856	119.64	126.38	61.032	134.46	218.72	-4.4254	62.146	177.69	14.922	43.785	212.63	10.354	36.849	151.49	180.64	96.64	100.79	212.51	122.97	212.39	257.09	153.01	160.34	-269.41	1542.2	293.31	-354.89	1285	284.36
230	0.95417	-91.629	1265.3	260.71	-186.06	1493.6	453.8	-244.67	1480.1	107.49	-190.57	1819.8	260.31	-128.02	981.27	411.71	-130.92	1007	163.47	-340.91	1016.2	308.05	-334.12	1019.9	227.23	-224.54	903.89	468.56	-233.27	915.79	88.864	-209.29	1073	450.97	-236.48	1082.7	115.67	-355.51	975.01	267.85	-286.76	659.2	453.53	-230.98	563.33	416.75	-305.64	571	439.64	-198.91	668.26	437.58	-306.43	497.55	430.12	-329.77	501.91	295.93	-447.06	302.89	421.49	-404.5	209.04	379.7	-467.46	236.28	402.26	-386.88	275.85	405.58	-488.93	123.13	381.16	-471.55	133.17	293.92	-561.45	100.51	326.34	-555.9	68.461	297.21	-562.01	69.349	361.39	-397.04	39.808	416.44	-356.23	35.994	297.69	-293.34	44.297	348.15	-175.62	677.21	101.43	-66.347	613.82	99.662	-136.26	597.4	113.82	-110.57	691.49	83.761	-65.329	524.96	114.76	-50.986	514.76	242.98	-83.449	327.23	120.5	12.586	271.85	111.46	-49.357	257.18	124.93	-21.253	340.75	106.14	58.911	119	126.75	65.798	133.74	219.14	0.49943	61.73	177.85	19.71	43.282	212.79	15.296	36.427	151.63	185.71	96.115	101.57	217.22	122.3	213.27	261.95	152.43	161.41	-264.03	1541.6	292.74	-349.37	1284.3	283.88
231	0.95833	-86.06	1264.8	260.02	-180.54	1493.1	453.16	-239.38	1479.5	106.87	-184.98	1819.3	259.71	-122.18	980.81	411.2	-125.07	1006.5	162.91	-335.08	1015.6	307.45	-328.37	1019.4	226.62	-218.75	903.43	468.1	-227.42	915.15	88.439	-203.56	1072.5	450.46	-230.78	1082	115.12	-349.72	974.41	267.24	-281.09	658.8	453.2	-225.29	562.87	416.63	-300	570.6	439.34	-193.2	667.82	437.35	-301.02	497.08	429.94	-324.11	501.46	295.79	-443.74	303.85	421.55	-402.26	209.47	379.76	-464.91	237.46	402.35	-383.86	276.1	405.63	-487.75	124.52	381.35	-470.09	134.34	294.1	-560.5	102.64	326.6	-555.28	70.637	297.39	-561.36	71.396	361.57	-396.76	39.906	416.52	-356.09	36.038	297.76	-293.11	43.992	348.14	-169.95	676.69	101.19	-60.736	613.2	99.736	-130.7	596.87	113.72	-104.84	690.9	83.64	-59.794	524.31	114.8	-45.844	514.17	242.93	-78.32	326.59	120.39	17.598	270.98	111.78	-44.435	256.48	124.95	-16.038	339.94	106.35	63.476	118.26	127.15	70.061	132.9	219.59	4.8313	61.386	178.02	23.839	42.808	212.95	19.583	36.044	151.76	190.24	95.284	102.44	221.38	121.26	214.24	266.34	151.39	162.59	-258.64	1541.1	292.15	-343.84	1283.7	283.37
232	0.9625	-80.473	1264.3	259.31	-175.03	1492.6	452.5	-234.09	1479	106.22	-179.39	1818.8	259.1	-116.32	980.39	410.67	-119.19	1006.1	162.34	-329.23	1015	306.84	-322.59	1018.8	226	-212.92	902.98	467.63	-221.55	914.54	88.013	-197.81	1072	449.95	-225.04	1081.4	114.56	-343.92	973.86	266.63	-275.28	658.38	452.86	-219.41	562.4	416.54	-294.18	570.17	439.04	-187.35	667.39	437.12	-295.4	496.57	429.77	-318.23	500.96	295.66	-440.27	304.86	421.62	-399.9	209.95	379.84	-462.22	238.71	402.45	-380.71	276.39	405.69	-486.49	126	381.57	-468.48	135.59	294.3	-559.45	104.92	326.87	-554.59	72.973	297.58	-560.65	73.59	361.76	-396.47	40.021	416.59	-355.95	36.092	297.83	-292.89	43.697	348.13	-164.21	676.2	100.94	-55.033	612.64	99.829	-125.05	596.37	113.61	-99.032	690.36	83.54	-54.172	523.7	114.85	-40.622	513.62	242.86	-73.341	326.03	120.26	22.383	270.06	112.13	-39.758	255.8	124.95	-10.952	339.12	106.59	67.585	117.45	127.56	73.858	131.97	220.05	8.6138	61.116	178.18	27.354	42.369	213.11	23.26	35.704	151.9	194.27	94.165	103.37	225.03	119.87	215.29	270.3	149.93	163.86	-253.25	1540.6	291.52	-338.29	1283.1	282.83
233	0.96667	-74.871	1264	258.59	-169.53	1492.1	451.81	-228.79	1478.4	105.54	-173.8	1818.4	258.48	-110.43	979.99	410.13	-113.28	1005.7	161.74	-323.35	1014.4	306.22	-316.79	1018.3	225.36	-207.04	902.55	467.15	-215.67	913.96	87.589	-192.04	1071.5	449.42	-219.27	1080.9	113.98	-338.09	973.34	266.01	-269.32	657.94	452.51	-213.33	561.94	416.46	-288.16	569.7	438.74	-181.36	666.97	436.9	-289.56	496.04	429.61	-312.13	500.41	295.55	-436.64	305.92	421.7	-397.41	210.47	379.93	-459.39	240.03	402.57	-377.41	276.71	405.76	-485.12	127.57	381.81	-466.72	136.91	294.53	-558.27	107.35	327.15	-553.79	75.478	297.76	-559.84	75.945	361.96	-396.16	40.16	416.66	-355.82	36.156	297.9	-292.67	43.411	348.1	-158.4	675.76	100.68	-49.253	612.14	99.937	-119.31	595.92	113.48	-93.149	689.87	83.46	-48.475	523.14	114.9	-35.333	513.12	242.75	-68.5	325.55	120.11	26.961	269.09	112.5	-35.303	255.16	124.95	-5.9832	338.3	106.83	71.279	116.56	127.98	77.232	130.94	220.52	11.897	60.923	178.33	30.307	41.971	213.26	26.374	35.408	152.02	197.83	92.777	104.36	228.23	118.16	216.4	273.86	148.06	165.2	-247.87	1540.1	290.87	-332.73	1282.5	282.25
